<svg width="16" height="16" viewBox="0 0 16 16" fill="none" xmlns="http://www.w3.org/2000/svg">
<g clip-path="url(#clip0_4435_18646)">
<path d="M3.88574 9.00293C5.30039 9.46183 6.53476 10.3515 7.41479 11.5464C7.96211 12.2718 10.7106 13.3029 13.6019 11.2691C13.6019 11.2691 12.4121 13.7106 9.51365 13.7106C8.62842 13.7106 6.84129 13.355 5.77758 11.1031C5.33496 10.155 4.52825 9.26131 3.89764 9.01004" fill="#003378"/>
<path d="M11.9483 4.62074C11.7936 4.62074 10.4444 4.87438 10.4444 5.95529V7.24955C10.4444 7.72363 10.0993 8.79744 9.18315 9.04159C9.06655 9.06767 8.9785 9.04159 8.9785 8.88752V5.33187C8.9785 4.83645 9.29737 4.70608 9.39732 4.70608H9.66622C9.74237 4.70608 9.80662 4.66815 9.80662 4.60415C9.80662 4.54015 9.80662 4.47852 9.6924 4.47852H7.1414C7.02717 4.47852 7.02717 4.54252 7.02717 4.60415C7.02717 4.66578 7.08904 4.70608 7.16757 4.70608H7.43409C7.53642 4.70608 7.8553 4.83645 7.8553 5.33187V8.88752C7.8553 9.04159 7.76725 9.06767 7.65064 9.04159C6.73447 8.80455 6.33469 7.73075 6.33469 7.24955V5.95529C6.33469 4.87438 4.98304 4.62074 4.83074 4.62074C4.67844 4.62074 4.59277 4.68474 4.59277 4.7843C4.59277 4.88386 4.59277 4.89097 4.707 4.89808C4.91165 4.9123 5.06395 5.13512 5.06395 5.4575V6.89398C5.06395 8.83537 7.40078 9.3616 7.56498 9.42323C7.72917 9.48487 7.76011 9.52753 7.76011 9.66028V12.2678C7.76011 12.7632 7.80294 12.8035 7.70062 12.8035C7.59829 12.8035 7.57925 12.8035 7.50548 12.8035C7.43171 12.8035 7.36508 12.8414 7.36508 12.9054C7.36508 12.9694 7.36508 13.0334 7.47931 13.0334H9.77331C9.88991 13.0334 9.88991 12.9694 9.88991 12.9054C9.88991 12.8414 9.82566 12.8035 9.74951 12.8035H9.48775C9.38542 12.8035 9.06655 12.7537 9.06655 12.2583V9.65079C9.06655 9.51094 9.09034 9.47064 9.25692 9.41375C9.4235 9.35686 11.7056 8.83774 11.7056 6.89398V5.4575C11.7056 5.14224 11.8603 4.9123 12.0625 4.89808C12.1768 4.89808 12.1768 4.88623 12.1768 4.7843C12.1768 4.68237 12.103 4.62074 11.9388 4.62074" fill="#003378"/>
<path d="M6.29395 2.61572C6.29395 2.61572 17.7449 2.38816 13.6947 11.2062C13.6947 11.2062 17.5284 8.84995 15.3081 5.15445C14.2611 3.42167 10.5583 1.50873 6.29395 2.61572Z" fill="#6172A6"/>
<path d="M6.14906 2.6298C4.76171 2.83129 1.47301 4.40051 1.47301 6.28738C1.47301 8.17424 3.8265 8.98967 3.8265 8.98967C1.17556 8.90907 0 7.20236 0 6.10959C0 2.87159 5.42802 2.62032 5.65647 2.59424C5.82152 2.58073 5.98768 2.59272 6.14906 2.6298V2.6298Z" fill="#2C4F8D"/>
</g>
<defs>
<clipPath id="clip0_4435_18646">
<rect width="16" height="16" fill="white"/>
</clipPath>
</defs>
</svg>
